<?xml version="1.0" encoding="UTF-8"?>
<svg id="Layer_1" xmlns="http://www.w3.org/2000/svg" version="1.1" viewBox="0 0 2338.35 2338.35">
  <!-- Generator: Adobe Illustrator 29.7.1, SVG Export Plug-In . SVG Version: 2.1.1 Build 8)  -->
  <defs>
    <style>
      .st0 {
        fill: #fff;
      }

      .st0, .st1, .st2, .st3, .st4, .st5, .st6, .st7 {
        fill-rule: evenodd;
      }

      .st1 {
        fill: #e2962d;
      }

      .st2 {
        fill: #9c3;
      }

      .st3 {
        fill: #eb2d04;
      }

      .st8, .st7 {
        fill: #650001;
      }

      .st4 {
        fill: #ffd8ad;
      }

      .st5 {
        fill: #ff8906;
      }

      .st6 {
        fill: #ffbd02;
      }

      .st9 {
        opacity: .5;
      }

      .st10 {
        opacity: .3;
      }
    </style>
  </defs>
  <path class="st1" d="M256.45,1134.27c515.08-463.45,1290.8-483.26,1828.86-46.7,490.19,867.93-1625.73,1321.01-1944.2,538.67-67.69-166.3-4.84-358.56,115.33-491.97Z"/>
  <path class="st8" d="M975.16,2044.54c-52.02,0-103.23-2.32-153.03-7.04-166.55-15.79-310.38-56.15-427.49-119.96-129.38-70.5-219.52-166.53-267.93-285.45-33.21-81.59-37.85-174.29-13.42-268.09,22.53-86.53,68.04-169.57,131.61-240.14.36-.4.75-.79,1.15-1.15,251.87-226.62,577.11-356.19,915.81-364.83,338.8-8.65,670.14,104.15,933.23,317.62,1.51,1.23,2.78,2.73,3.74,4.43,100.2,177.41,99.95,353.18-.7,508.3-97.08,149.6-286.79,277.83-534.2,361.07-184.7,62.14-392.39,95.25-588.78,95.25ZM267.45,1145.28c-127.67,142.11-171.61,328.52-111.94,475.1,88.11,216.45,325.89,353.6,669.56,386.17,233.6,22.14,499.32-9.46,728.96-86.72,240.79-81.01,424.76-204.78,518.04-348.53,94.8-146.1,95.18-305.4,1.15-473.52-535.13-432.39-1293.91-412.57-1805.77,47.49Z"/>
  <path class="st5" d="M737.53,816.84c337.78-117.61,704.59-122.24,1042.55-5.13,163.36,37.82,288.99,168.5,320.36,333.22,31.35,164.71-34.54,336.84-175.51,427.61-12,7.72-26.21.07-36.65-7.88-2.3,39.05-24.4,69.59-66.29,91.59-436.73,275.36-986.95,318.79-1451.83,94.21-16.48-7.95-14.71-33.5-11.34-51.5-58.43,6.9-137.81-29.53-168.84-117.07-101.53-286.46,90.5-586.16,380.86-676.03,19.6-6.07,38.39-5.84,55.86-.9,13.62-40.89,51.49-67.44,110.83-88.12Z"/>
  <path class="st8" d="M1004.46,1909.89c-223.02,0-442.74-49.62-641.05-145.43-11.49-5.55-23.6-18.61-22.2-49.15-63.09-1.3-135.71-43.12-165.87-128.23-45.32-127.87-35.67-267.27,27.17-392.52,72.08-143.67,204.66-254.31,363.75-303.55,16.98-5.26,34.06-6.6,50.95-4,17.37-36.49,54.43-63.67,115.21-84.85h0c170.73-59.44,347.77-90.21,526.21-91.45,180.08-1.27,357.11,27.7,525.76,86.04,168.87,39.44,298.87,174.88,331.31,345.27,16.12,84.68,7.83,171.21-23.99,250.24-32.47,80.68-87.24,147.54-158.38,193.34-7.44,4.79-18.48,8.23-33.18,3.27-8.75,33.59-32.34,60.72-70.4,80.84-217.96,137.3-467.64,219.12-722.07,236.61-34.45,2.37-68.89,3.54-103.24,3.54ZM358.82,1683.42c4.28,0,8.4,1.76,11.36,4.93,3.37,3.61,4.83,8.61,3.93,13.47-3.95,21.09-1.43,32.6,2.82,34.65,450.07,217.43,1000.61,181.66,1436.79-93.36.35-.22.7-.42,1.06-.61,37.05-19.45,56.02-45.21,58-78.74.34-5.73,3.81-10.81,9.03-13.21,5.22-2.4,11.33-1.72,15.9,1.76,3.22,2.45,14.08,10.24,18.82,7.17,131.61-84.74,199.39-250.17,168.66-411.63-30.19-158.58-151.32-284.57-308.59-320.99-.54-.13-1.06-.28-1.58-.46-328.92-113.97-695.54-112.14-1032.35,5.12h0c-58.76,20.47-89.97,44.63-101.19,78.35-2.63,7.88-10.98,12.3-18.97,10.05-15.43-4.36-31.27-4.09-47.03.79-151.05,46.75-276.86,151.65-345.16,287.8-59.01,117.61-68.12,248.38-25.65,368.19,27.57,77.82,99.04,113.1,152.36,106.83.61-.08,1.22-.11,1.82-.11Z"/>
  <g class="st9">
    <path class="st0" d="M354.04,1553.59c239.27-244.26,338.42-446.37,297.47-606.31-335.82,154.89-434.97,356.99-297.47,606.31"/>
  </g>
  <g class="st9">
    <path class="st0" d="M407.53,1626.08c411.82-253.49,918.31-300.43,1369.68-126.88-197.74,163.44-436.31,256.47-680.94,275.96,19.95,1.86,33.59,6.34,33.8,12.09.31,8.4-28.28,16.3-63.86,17.62-35.57,1.32-64.67-4.41-64.98-12.81-.2-5.1,10.2-10,26.32-13.36-212.03,4.95-426.18-45.21-620.02-152.62"/>
  </g>
  <g class="st9">
    <path class="st0" d="M1625.29,1415.87c-74.04-199.17-62.34-382.18,35.09-549.04,119.56,27.09,216.71,113.89,257.03,229.66,40.33,115.77,18.12,244.13-58.74,339.64-101.08-43.88-178.87-50.64-233.37-20.26"/>
  </g>
  <g class="st10">
    <path class="st7" d="M1868.11,842.63c119.37,57.41,206.89,168.65,232.33,302.3,31.35,164.72-34.54,336.84-175.52,427.61-11.99,7.72-26.2.07-36.63-7.88-2.31,39.05-24.41,69.59-66.3,91.59-436.72,275.36-986.95,318.77-1451.83,94.21-16.48-7.95-14.72-33.5-11.34-51.5-58.43,6.9-137.81-29.53-168.83-117.07-99.11-279.61,81.5-571.79,360.21-669.18,8.33,1.63,16.65,3.42,24.97,5.35-135.14,35.09-246.22,131.15-300.48,259.78-54.26,128.65-45.51,275.23,23.67,396.49,20.09-24.56,51.5-34.88,94.21-30.97,36.61,19.93,39.08,51.14,7.43,93.57-15.61,33.94-16.8,65.28,7.43,75.61,383.3,163.64,817.27,147.37,1201.16-14.87,161.11-68.09,215.78-135.1,158.57-214.33,0,0,4.06-14.76,12.15-44.29,56.42-14.69,97.65-5.91,123.69,26.31,81.59-85.5,124.14-200.96,117.52-318.95-6.61-117.97-61.78-227.96-152.42-303.78"/>
  </g>
  <g class="st10">
    <path class="st7" d="M349.39,1544.95c4.79-.94,9.78-1.61,15-1.99l-10.35,10.63c-1.59-2.89-3.12-5.76-4.65-8.64"/>
  </g>
  <path class="st6" d="M1505.99,844.62c75.79,2.6,124.87,1.18,147.25-4.28-12.99,33.76-9.35,57.03,10.91,69.81,230.8,63.59,297.03,356.67,120,517.83-15.37,13.99-18.55,34.79-16.98,55.37-16.26,2.31-28.44,11.39-41.83,20.93-365.51,260.31-845.36,296.5-1248.96,100.34-18.13-7.39-38.13-8.77-57.09-3.94,10.4-23.95,8.51-42.99-5.66-57.14-144.33-172.87-80.09-385.13,233.84-573.26,254.11-152.27,566.25-174.03,858.53-125.65Z"/>
  <path class="st8" d="M1018.18,1745.23c-186.3,0-373.74-41.73-548.12-126.41-14.82-5.93-31.48-7.04-46.94-3.09-5.75,1.47-11.83-.47-15.67-4.99-3.84-4.52-4.78-10.83-2.42-16.27,10.2-23.49,3.52-34.05-2.39-39.95-.33-.33-.65-.68-.95-1.04-62.69-75.09-87.27-155.75-73.06-239.75,21-124.14,128.49-247.52,310.84-356.8,293.02-175.58,633.6-166.49,868.06-127.82,91.44,3.11,127.72-.39,142.03-3.88,5.61-1.37,11.53.49,15.35,4.84,3.82,4.34,4.91,10.45,2.84,15.85-13.44,34.94-3.17,45.66,2.9,49.91,111.44,31.59,193.93,117.51,220.91,230.3,27.69,115.74-8.55,232.88-96.95,313.35-9.57,8.7-13.47,22.67-11.95,42.7.62,8.17-5.2,15.41-13.31,16.57-11.85,1.69-21.35,8.46-33.39,17.05l-1.62,1.15c-212.33,151.21-463.14,228.28-716.17,228.29ZM441.75,1582.33c13.84,0,27.66,2.65,40.5,7.88.31.13.62.27.92.42,401.11,194.97,873.63,157.03,1233.15-99.02l1.6-1.14c10.2-7.28,20.65-14.73,33.39-19.18.59-23.41,8.09-41.82,22.38-54.82,79.89-72.73,112.65-178.57,87.64-283.13-24.5-102.4-99.75-180.24-201.3-208.22-1.47-.41-2.87-1.02-4.16-1.84-15.54-9.8-30.7-28.58-24.22-64.04-27.74,2.56-69.43,2.85-126.18.9-.67-.02-1.34-.09-2.01-.2-229.37-37.97-562.67-47.33-848.01,123.65-174.31,104.46-276.73,220.41-296.17,335.32-12.6,74.45,9.56,146.49,65.86,214.14,9.8,10.02,18.88,25.92,15.61,49.27.33,0,.67,0,1,0Z"/>
  <g class="st10">
    <path class="st7" d="M555.69,1580.63l2.94,2.15,11.51-6.29c-4.98,1.77-9.79,3.15-14.45,4.14M972.77,1550.41c71.49-6.58,132.45,20.55,136.14,60.63,3.69,40.07-51.28,77.89-122.77,84.47-71.49,6.58-132.45-20.55-136.14-60.61-3.69-40.07,51.28-77.91,122.77-84.49ZM802.78,1243.03c59.07-5.44,109.43,16.97,112.49,50.08,3.04,33.11-42.38,64.35-101.45,69.81-59.07,5.42-109.43-16.99-112.49-50.11-3.04-33.09,42.37-64.34,101.45-69.78ZM532.61,1176.11c44.46-14.89,87.28-6.76,95.62,18.16,8.33,24.92-20.95,57.18-65.41,72.07-44.47,14.87-87.27,6.76-95.62-18.18-8.34-24.9,20.95-57.18,65.41-72.05ZM1452.26,1172.8c46.5-6.05,86.94,10.16,90.34,36.23,3.38,26.04-31.57,52.07-78.07,58.14-46.49,6.04-86.93-10.17-90.33-36.25-3.38-26.06,31.57-52.08,78.06-58.12ZM1687.08,1247.51c59.07-5.44,109.44,16.97,112.49,50.08,3.04,33.13-42.37,64.35-101.44,69.81-59.06,5.44-109.43-16.99-112.48-50.09-3.05-33.11,42.37-64.35,101.44-69.79ZM1143.74,1096.1c64.27-24.49,154.88-34.01,213.74-58.97-10.84,37.3-38.38,67.25-74.31,82.05-47.2,19.43-105.79-3.61-139.43-23.08ZM1709.91,1118.87c32.04-10.74,62.9-4.88,68.92,13.1,6,17.95-15.1,41.2-47.15,51.94-32.04,10.72-62.89,4.86-68.92-13.12-6.01-17.94,15.11-41.2,47.15-51.92ZM1419.55,1550.94c21.64-7.45,30.41-12.27,23.55-25.3-17.75-29.49-51.41-45.51-85.47-40.66-34.07,4.86-65.49,28.9-70.71,62.89-2.58,16.81,16.35,20.89,45.83,11.8,16.92-.24,16.21,12.61,13.52,41.44-1.45,15.38,17.84,25.03,33.24,24.07,15.41-.94,31.04-12.6,30.01-27.99-1.55-23.4-2.93-41.78,10.04-46.24ZM576.62,1392.52c21.64-7.44,30.42-12.27,23.55-25.3-17.75-29.49-51.4-45.5-85.47-40.64-34.07,4.84-65.49,28.88-70.71,62.89-2.58,16.79,16.35,20.87,45.83,11.78,16.92-.22,16.21,12.61,13.52,41.46-1.44,15.36,17.84,25.01,33.24,24.05,15.41-.94,31.04-12.6,30.02-27.99-1.56-23.38-2.93-41.78,10.03-46.25ZM1281.78,1397.09c32.91-7.64,63.09,1.08,67.37,19.55,4.28,18.43-18.92,39.6-51.84,47.26-32.92,7.64-63.08-1.1-67.38-19.55-4.28-18.45,18.94-39.59,51.85-47.26ZM891.41,1722.92c-142.06-14.64-282.65-53.98-415.04-118.31-18.13-7.39-38.13-8.77-57.09-3.94,10.4-23.95,8.51-42.99-5.66-57.14-144.33-172.86-80.09-385.13,233.84-573.26,79.29-47.51,164.23-82.3,252.44-106.24-443.44,219.97-564.68,453.02-433.87,630.31,49.42,60.95,119.98,63.31,211.72,6.96-19.99,18.88-38.61,34.46-55.9,46.75,121.73-67.39,290.86-163.44,507.39-288.19,13.2-18.38,21.44-33.11,24.7-44.2-3.19-34.28-.74-64.88,7.32-91.77,16.49,46.73,65.25,43.43,146.26-9.92,0,0,2.9,11.17,8.68,33.49-67.63,47.66-63.71,86.07,11.77,115.28-29.75,11.15-44.63,16.73-44.63,16.73-76.15-36.15-139.94-27.16-191.39,26.89,5.59-6.47,10.82-12.65,15.68-18.58-101.01,71.58-230.27,151.84-387.77,240.77-75.3,44.15-96.78,81.21-64.45,111.18,66.05,32.35,144.98,60.41,235.98,83.2Z"/>
  </g>
  <path class="st8" d="M357.58,1722.24c-.26,0-.52,0-.79-.02-8.57-.43-15.18-7.73-14.74-16.3,2.8-56.01,40.5-105.38,93.79-122.84,8.14-2.66,16.94,1.77,19.61,9.93,2.67,8.16-1.78,16.94-9.93,19.61-41.15,13.48-70.25,51.6-72.42,94.85-.41,8.31-7.28,14.76-15.51,14.76Z"/>
  <path class="st8" d="M322.01,1713.42c-4.02,0-8.03-1.54-11.07-4.63-46.37-47.06-39.63-89.15-31.49-110.06,13.65-35.05,49.91-60.85,88.16-62.75,31.14-1.57,57.05,13.28,70.99,40.69,3.89,7.65.85,17.01-6.8,20.9-7.64,3.9-17.01.85-20.9-6.8-10.59-20.81-28.52-24.4-41.75-23.74-25.99,1.29-51.53,19.37-60.74,42.99-9.49,24.34-.96,50.95,24.66,76.96,6.03,6.11,5.95,15.95-.16,21.98-3.03,2.99-6.97,4.47-10.91,4.47Z"/>
  <path class="st8" d="M1884.77,1601.79c-.18,0-.36,0-.54,0-8.58-.29-15.3-7.48-15-16.07.88-25.71-9.73-50.17-29.1-67.12-19.36-16.93-45.03-24.18-70.38-19.92-8.45,1.45-16.48-4.28-17.91-12.74-1.43-8.47,4.28-16.48,12.74-17.91,34.59-5.84,69.6,4.08,96.01,27.17,26.43,23.12,40.9,56.5,39.7,91.58-.28,8.4-7.18,15.01-15.52,15.01Z"/>
  <path class="st8" d="M1903.01,1480.9c-4.21,0-8.4-1.7-11.47-5.05-28.12-30.71-73.71-39.04-110.89-20.28-7.65,3.88-17.01.8-20.88-6.87-3.87-7.66-.79-17.01,6.87-20.88,49.55-25.02,110.34-13.91,147.83,27.03,5.8,6.33,5.37,16.16-.97,21.96-2.98,2.73-6.74,4.08-10.49,4.08Z"/>
  <path class="st8" d="M647.45,985.82c-2.09,0-4.21-.42-6.25-1.32-7.86-3.46-11.43-12.63-7.97-20.48,4.41-10.03,3.65-21.6-2.02-30.95-5.67-9.37-15.58-15.4-26.51-16.12-8.56-.57-15.04-7.98-14.47-16.54.57-8.56,7.89-15.04,16.54-14.47,21.04,1.4,40.11,13,51.02,31.03,10.92,18,12.38,40.27,3.89,59.57-2.56,5.82-8.26,9.29-14.24,9.29Z"/>
  <path class="st8" d="M706.86,916.8c-6.49,0-12.55-4.1-14.73-10.59-5.58-16.58-19.78-28.63-37.06-31.43-8.47-1.38-14.23-9.36-12.85-17.83,1.38-8.47,9.37-14.24,17.83-12.85,28.7,4.66,52.28,24.67,61.54,52.21,2.73,8.14-1.64,16.95-9.78,19.69-1.64.55-3.31.82-4.95.82Z"/>
  <path class="st8" d="M498.63,1630.69c-5.54,0-10.91-2.97-13.71-8.2-4.05-7.56-1.21-16.99,6.36-21.04,449.06-240.71,835.08-484.06,1147.33-723.3,6.82-5.22,16.57-3.93,21.79,2.89,5.22,6.81,3.93,16.57-2.88,21.79-313.58,240.25-701.02,484.52-1151.56,726.02-2.33,1.25-4.85,1.84-7.33,1.84Z"/>
  <path class="st8" d="M1776.02,1497.81c-2.08,0-4.19-.42-6.21-1.3-387.04-168.93-761.55-344.51-1113.12-521.86-7.66-3.87-10.75-13.21-6.88-20.88,3.87-7.66,13.22-10.74,20.88-6.88,351.06,177.09,725.04,352.42,1111.55,521.13,7.87,3.43,11.46,12.6,8.03,20.46-2.55,5.84-8.26,9.33-14.25,9.33Z"/>
  <path class="st4" d="M1449.91,1523.66c21.64-7.44,30.41-12.27,23.54-25.3-17.74-29.49-51.4-45.51-85.47-40.66-34.06,4.84-65.48,28.9-70.71,62.91-2.58,16.77,16.35,20.87,45.83,11.78,16.92-.24,16.22,12.61,13.52,41.44-1.45,15.38,17.84,25.03,33.25,24.07,15.4-.94,31.03-12.6,30.01-27.99-1.56-23.4-2.93-41.78,10.03-46.25Z"/>
  <path class="st8" d="M1407.7,1613.51c-13.85,0-28.05-5.6-36.88-14.71-7.14-7.37-10.57-16.75-9.66-26.42.66-7,1.66-17.76,1.35-23.63-23.6,6.43-40.95,5.01-51.65-4.22-7.39-6.38-10.56-15.71-8.94-26.28,5.91-38.53,40.41-69.76,83.88-75.94,40.33-5.73,79.98,13.13,100.97,48.04.15.25.29.5.43.75,4.49,8.51,5.3,16.53,2.4,23.85-4.81,12.16-17.65,17.54-33.97,23.18-1.99,4.47-.97,19.77-.28,30.04l.05.71c.67,10.03-2.83,19.94-9.84,27.9-8.46,9.61-21.44,15.83-34.73,16.64-1.04.07-2.08.1-3.13.1ZM1363.53,1516.85c9.38,0,16.81,2.9,22.1,8.62,10.11,10.95,8.59,27.25,6.47,49.81-.02.23-.07.74,1.04,1.89,3.18,3.28,10.14,5.62,15.77,5.22,5.07-.31,10.29-2.72,13.31-6.15,2.33-2.65,2.2-4.64,2.16-5.3l-.05-.7c-1.74-26.05-3.54-52.98,20.52-61.28,0,0,0,0,.01,0,6.15-2.11,10.7-3.87,13.59-5.25-14.92-22.49-41.4-34.43-68.28-30.63-29.37,4.18-52.64,23.89-57.25,48.24,3.68.56,11.91.43,25.6-3.79,1.41-.44,2.88-.67,4.36-.69.22,0,.43,0,.64,0ZM1454.98,1538.36h0,0Z"/>
  <path class="st3" d="M991.76,1516.98c71.49-6.58,132.45,20.57,136.13,60.63,3.7,40.06-51.27,77.89-122.76,84.47-71.49,6.6-132.46-20.55-136.14-60.61-3.7-40.06,51.28-77.89,122.77-84.49Z"/>
  <path class="st8" d="M983.82,1678.61c-28.91,0-56.18-5.2-78.51-15.14-31.08-13.84-49.48-35.35-51.8-60.58-2.33-25.22,11.82-49.74,39.85-69.02,25.35-17.44,59.78-28.93,96.97-32.36h0c37.2-3.44,73.14,1.58,101.24,14.1,31.08,13.84,49.47,35.35,51.79,60.58,2.33,25.22-11.82,49.74-39.85,69.02-25.35,17.44-59.78,28.93-96.96,32.35-7.65.71-15.25,1.05-22.74,1.05ZM993.19,1532.46c-31.97,2.95-61.16,12.54-82.2,27.02-18.08,12.44-27.75,27.23-26.52,40.56,1.23,13.34,13.43,26.11,33.49,35.04,23.33,10.38,53.78,14.47,85.75,11.53,31.97-2.94,61.16-12.53,82.19-27,18.08-12.44,27.75-27.22,26.52-40.56-1.23-13.34-13.43-26.11-33.49-35.03-23.32-10.39-53.78-14.48-85.75-11.55h0Z"/>
  <path class="st3" d="M1699.48,1209.07c59.08-5.44,109.43,16.99,112.49,50.1,3.06,33.11-42.37,64.35-101.44,69.79-59.07,5.46-109.43-16.97-112.49-50.08-3.05-33.11,42.37-64.35,101.44-69.81Z"/>
  <path class="st8" d="M1692.91,1345.32c-24.26,0-47.18-4.38-65.96-12.74-26.61-11.85-42.38-30.41-44.39-52.27-3.89-42.28,46.84-80.37,115.49-86.71,0,0,0,0,0,0,68.64-6.32,125.49,21.85,129.39,64.15,2.02,21.86-10.09,42.99-34.09,59.5-21.31,14.66-50.23,24.32-81.4,27.19-6.4.59-12.76.89-19.03.89ZM1700.91,1224.55c-53.92,4.98-89.33,31.88-87.4,52.91.92,10.02,10.43,19.76,26.08,26.73,18.58,8.28,43.91,11.67,69.5,9.3,25.59-2.36,49.88-10.32,66.64-21.85,14.11-9.71,21.68-21.03,20.76-31.04-1.94-21.03-41.66-41.01-95.59-36.05h0Z"/>
  <path class="st3" d="M1461.53,1143.33c46.5-6.05,86.94,10.17,90.33,36.23,3.39,26.06-31.56,52.08-78.05,58.12-46.5,6.05-86.94-10.17-90.33-36.23-3.39-26.04,31.56-52.08,78.05-58.12Z"/>
  <path class="st8" d="M1454.53,1254.49c-17.43,0-33.92-2.88-47.83-8.46-22.51-9.03-36.23-24.15-38.63-42.58-2.39-18.42,7-36.54,26.45-51.03,16.85-12.55,39.93-21.25,65.01-24.51h0c25.08-3.26,49.63-.76,69.13,7.06,22.51,9.03,36.23,24.15,38.63,42.58,2.4,18.43-7,36.55-26.45,51.04-16.84,12.54-39.93,21.24-65.02,24.5-7.17.93-14.3,1.39-21.28,1.39ZM1480.7,1157.62c-5.63,0-11.39.37-17.16,1.12h0c-19.6,2.55-37.98,9.33-50.45,18.61-9.89,7.36-15.06,15.42-14.19,22.09.87,6.68,7.93,13.15,19.37,17.74,14.42,5.78,33.94,7.64,53.54,5.09,19.61-2.54,37.99-9.32,50.46-18.6,9.89-7.36,15.06-15.42,14.19-22.1-.87-6.68-7.93-13.15-19.37-17.74-10.18-4.08-22.89-6.21-36.38-6.21ZM1461.53,1143.33h.04-.04Z"/>
  <path class="st3" d="M821.73,1209.07c59.08-5.44,109.44,16.99,112.49,50.1,3.05,33.11-42.37,64.35-101.44,69.79-59.08,5.46-109.44-16.97-112.49-50.08-3.05-33.11,42.37-64.35,101.44-69.81Z"/>
  <path class="st8" d="M815.17,1345.32c-24.26,0-47.18-4.38-65.97-12.74-26.61-11.85-42.38-30.41-44.39-52.27-3.9-42.28,46.82-80.37,115.48-86.71,0,0,0,0,0,0,31.18-2.86,61.37,1.35,85.01,11.87,26.61,11.85,42.38,30.42,44.38,52.28,2.02,21.85-10.09,42.99-34.09,59.5-21.31,14.66-50.23,24.32-81.4,27.19-6.4.59-12.76.89-19.03.89ZM823.16,1224.55c-53.92,4.98-89.33,31.88-87.39,52.91.92,10.02,10.43,19.76,26.08,26.73,18.59,8.28,43.93,11.67,69.5,9.3,25.59-2.36,49.88-10.32,66.63-21.85,14.12-9.71,21.68-21.03,20.76-31.04-.92-10.02-10.43-19.76-26.08-26.73-18.58-8.28-43.91-11.67-69.51-9.31h0Z"/>
  <path class="st3" d="M538.19,1140.16c44.46-14.89,87.27-6.76,95.61,18.16,8.34,24.92-20.94,57.18-65.4,72.07-44.46,14.87-87.28,6.74-95.62-18.18-8.34-24.9,20.95-57.18,65.41-72.05Z"/>
  <path class="st8" d="M525.49,1253.32c-33.21,0-59.7-13.03-67.44-36.17-5.9-17.61-.17-37.2,16.13-55.17,14.12-15.55,35.1-28.53,59.08-36.56h0c23.99-8.03,48.55-10.3,69.19-6.38,23.83,4.53,40.2,16.72,46.1,34.35,11.23,33.56-21.81,73.86-75.21,91.74-16.58,5.55-32.9,8.19-47.85,8.19ZM581.66,1148.27c-12.09,0-25.49,2.27-38.53,6.63,0,0,0,0,0,0-18.75,6.27-35.48,16.46-45.93,27.97-8.28,9.13-11.81,18.02-9.67,24.41,4.8,14.34,38.29,20.97,75.95,8.38,37.63-12.6,60.39-38.06,55.59-52.4-2.14-6.39-10.31-11.37-22.42-13.67-4.64-.88-9.69-1.32-14.98-1.32ZM538.2,1140.16h.04-.04Z"/>
  <path class="st3" d="M1696.74,1093.43c32.04-10.74,62.9-4.86,68.91,13.08,6.01,17.97-15.1,41.22-47.14,51.96-32.05,10.72-62.9,4.86-68.92-13.1-6.01-17.96,15.1-41.2,47.15-51.94Z"/>
  <path class="st8" d="M1687.1,1179.47c-25.71,0-45.98-10.46-52.25-29.17-9.01-26.94,15.47-57.72,56.95-71.61,17.98-6.02,36.46-7.71,52.05-4.74,18.51,3.52,31.83,13.59,36.53,27.63,9.02,26.94-15.46,57.73-56.94,71.63-12.68,4.24-25.03,6.26-36.34,6.26ZM1728.03,1103.61c-8.22,0-17.39,1.56-26.35,4.56h0c-26.85,8.99-39.44,26-37.35,32.27,2.1,6.26,22.38,12.27,49.24,3.29,26.85-8.99,39.43-26.01,37.33-32.28-.98-2.93-6.02-5.66-12.85-6.96-3.1-.59-6.47-.88-10.02-.88ZM1696.74,1093.43h.04-.04Z"/>
  <path class="st3" d="M1275.05,1363.5c32.92-7.64,63.08,1.1,67.37,19.55,4.29,18.45-18.92,39.6-51.84,47.26-32.92,7.66-63.08-1.1-67.37-19.55-4.28-18.43,18.92-39.6,51.84-47.26Z"/>
  <path class="st8" d="M1267.16,1448.62c-9.01,0-17.6-1.12-25.34-3.37-18.09-5.25-30.4-16.54-33.75-30.98-6.43-27.66,20.85-56,63.45-65.91,0,0,0,0,0,0,42.6-9.89,79.58,3.5,86.03,31.17,6.44,27.67-20.85,56.01-63.46,65.92-9.09,2.12-18.21,3.17-26.94,3.17ZM1278.58,1378.63c-27.59,6.42-41.72,22.17-40.22,28.6.7,3.02,5.47,6.22,12.14,8.16,10.05,2.92,23.38,2.84,36.56-.23,27.59-6.42,41.73-22.17,40.23-28.6-1.49-6.44-21.12-14.34-48.71-7.93h0Z"/>
  <path class="st4" d="M608.16,1365.01c21.64-7.44,30.41-12.27,23.54-25.3-17.74-29.49-51.4-45.51-85.46-40.66-34.07,4.84-65.49,28.9-70.71,62.91-2.58,16.79,16.35,20.87,45.83,11.78,16.92-.22,16.21,12.61,13.52,41.44-1.45,15.38,17.84,25.03,33.24,24.07,15.41-.96,31.04-12.6,30.01-27.99-1.55-23.4-2.93-41.78,10.04-46.25Z"/>
  <path class="st8" d="M565.94,1454.86c-13.86,0-28.06-5.6-36.88-14.71-7.14-7.37-10.58-16.75-9.67-26.42.69-7.43,1.67-17.88,1.36-23.63-23.6,6.43-40.96,5.02-51.65-4.21-7.39-6.37-10.57-15.71-8.94-26.29,5.92-38.53,40.41-69.76,83.89-75.94,40.32-5.72,79.97,13.12,100.97,48.04.15.25.29.5.43.76,4.49,8.51,5.3,16.53,2.4,23.85-4.81,12.16-17.65,17.54-33.98,23.18-1.99,4.46-.97,19.71-.29,29.94l.05.81c.67,10-2.82,19.9-9.81,27.86-8.45,9.61-21.43,15.84-34.74,16.67-1.04.06-2.09.1-3.13.1ZM521.74,1358.2c9.4,0,16.84,2.9,22.14,8.64,10.1,10.94,8.57,27.23,6.47,49.79-.02.23-.07.75,1.04,1.89,3.17,3.28,10.06,5.62,15.76,5.21,5-.31,10.35-2.78,13.32-6.16,2.32-2.64,2.19-4.63,2.15-5.28l-.05-.81c-1.73-26-3.51-52.89,20.54-61.17h0c6.16-2.12,10.7-3.87,13.6-5.25-14.92-22.49-41.39-34.47-68.27-30.63-29.37,4.18-52.65,23.9-57.26,48.25,3.72.55,11.91.43,25.61-3.79,1.42-.44,2.9-.67,4.38-.69.2,0,.39,0,.59,0ZM608.16,1365.01l5.06,14.7s0,0,0,0c0,0,0,0,0,0l-5.06-14.7Z"/>
  <path class="st5" d="M898.36,1171.23c363.66-110.02,690.61-268.69,999.8-418.74,134.79,122.42,342.14-166.1,56.73-361.22-220.73-149.18-496.77-191.47-752.04-115.19-99.07,34.45-103.43,181.03-34.03,219.86-184.76,262.53-293.03,447.42-324.86,554.64-22.33,77.15-1.76,137.63,54.4,120.65Z"/>
  <path class="st8" d="M880.53,1189.61c-15.09,0-28.42-5.23-38.76-15.44-24.23-23.94-28.99-71.75-12.73-127.91,31.67-106.72,138.67-290.51,318.12-546.51-28.85-24.32-44.36-67.2-40.22-114.24,5.18-58.88,39.98-106.43,90.81-124.11.22-.07.44-.15.65-.21,260.8-77.93,539.69-35.2,765.19,117.21,106.15,72.57,160.19,169.64,148.33,266.38-8.33,68.01-48.85,125-103.2,145.2-38.54,14.32-79.11,7.31-112.86-19.09-310.47,150.67-631.68,305.91-993,415.23h0c-7.74,2.34-15.23,3.5-22.33,3.5ZM898.37,1171.23h.04-.04ZM1207.64,290.87c-39.53,13.89-65.59,50.26-69.73,97.36-3.64,41.38,11.84,79.22,38.51,94.14,3.84,2.15,6.59,5.83,7.56,10.12.97,4.29.09,8.79-2.45,12.39-182.9,259.89-291.46,444.98-322.66,550.12-14.35,49.58-7.96,84.49,4.75,97.05,2.58,2.55,10.42,10.3,30.24,4.3,362.48-109.67,685.31-266.34,997.51-417.85,5.71-2.77,12.53-1.79,17.24,2.48,26.72,24.26,58.42,31.32,89.28,19.85,42.92-15.95,76.35-64.11,83.18-119.84,10.4-84.81-38.79-171.15-134.95-236.89-217.6-147.07-486.76-188.34-738.49-113.23Z"/>
  <g class="st9">
    <path class="st0" d="M2094.81,583.21c-10.98-63.01-52.09-131.89-139.92-191.94-220.73-149.18-496.76-191.47-752.04-115.19-28.17,9.79-48.68,28.66-62,51.52,138.2-45.51,282.03-56,420.11-34.55-1.61.9-2.65,2.01-3.01,3.34-2.25,8.28,21.64,21.96,53.34,30.58,31.71,8.64,59.24,8.93,61.48.69.95-3.49-2.77-7.95-9.79-12.62,163.36,45.2,314.11,136.39,431.83,268.17"/>
  </g>
  <g class="st10">
    <path class="st7" d="M898.36,1171.23c363.67-110.02,690.61-268.69,999.8-418.72,85.34,77.49,199.71-9.74,199.75-133.69-8.24-52.72-66.29-86.09-114.03-71.47-27.4,6.7-61.92,23.6-92.44,6.02v.02c-209.56-140.18-464.67-185.9-717.56-157.44-23.8,2.67-32.07-34.21-33.04-68.33l-.02.04c-16.51,53.4-19.95,93.85-10.33,121.28,1.36,3.54,2.88,6.99,4.55,10.32,10.26,18.74,28.52,29.55,54.75,32.42,277.63-43.82,499.89,10.55,666.78,163.1,6.74,49.84-42.09,84.9-146.47,105.2-404.51,144-691.58,235.78-861.29,275.41-1.78,5.24-3.4,10.3-4.85,15.22-22.33,77.15-1.76,137.63,54.4,120.64"/>
  </g>
  <path class="st8" d="M880.53,1189.61c-15.09,0-28.42-5.23-38.76-15.44-24.23-23.94-28.99-71.75-12.73-127.91,31.67-106.72,138.67-290.51,318.12-546.51-28.85-24.32-44.36-67.2-40.22-114.24,5.18-58.88,39.98-106.43,90.81-124.11.22-.07.44-.15.65-.21,260.79-77.92,539.69-35.2,765.19,117.21,106.15,72.57,160.19,169.64,148.33,266.38-8.33,68.01-48.85,125.01-103.21,145.21-38.51,14.31-79.11,7.32-112.85-19.08-310.7,150.75-631.81,305.93-993.01,415.21h0c-7.74,2.34-15.23,3.5-22.33,3.5ZM898.37,1171.23h.04-.04ZM1207.64,290.87c-39.53,13.89-65.59,50.26-69.73,97.36-3.64,41.38,11.84,79.22,38.51,94.14,3.84,2.15,6.59,5.83,7.56,10.12.97,4.29.09,8.79-2.45,12.39-182.9,259.89-291.46,444.98-322.66,550.12-14.35,49.58-7.96,84.49,4.75,97.05,2.58,2.55,10.42,10.3,30.24,4.3,362.36-109.63,685.09-266.23,997.19-417.67,5.7-2.77,12.86-1.95,17.56,2.32,26.72,24.26,58.43,31.31,89.28,19.84,42.92-15.95,76.35-64.12,83.18-119.85,10.39-84.81-38.8-171.15-134.95-236.89-217.6-147.06-486.75-188.34-738.49-113.23Z"/>
  <path class="st6" d="M841.47,1059.87c58.49-158.96,167.62-346.94,327.36-563.93,235.34-50.91,491.05-11.01,675.34,143.92,39.38,33.11,3.18,77.24-72.41,99.48-139.77,41.13-200.51,90.76-204.15,150.05-2.4,39.25-12.95,79.12-9.57,123.03.18,96.88-95.49,97.64-80.94,4.28,16.29-104.67,22.1-150.68-22.9-146.96-212.46,66.54-316,147.38-310.61,242.56,24.44,94.34,10.49,157.44-41.86,189.32-18.13,11.31-41.42,9.96-58.1-3.38-16.69-13.36-23.12-35.78-16.06-55.95,31.03-77.96,38.6-134.67,22.68-170.13-17.87-18.49-44.92-17.62-81.14,2.62-81.26,36.43-123.81,31.46-127.64-14.93Z"/>
  <path class="st8" d="M1075.12,1324.81c-14.63,0-29.23-4.85-41.2-14.42-21.81-17.45-30.25-46.87-21.02-73.23.07-.2.15-.41.23-.61,28.5-71.6,36.57-123.88,24.01-155.48-6.15-5.58-21.5-14.48-60.46,7.28-.4.22-.81.43-1.22.61-59.62,26.73-99.11,32.26-124.27,17.4-10.3-6.08-23.04-18.87-25.22-45.23-.18-2.25.12-4.52.9-6.65,58.71-159.58,169.55-350.6,329.43-567.78,2.25-3.05,5.53-5.17,9.23-5.98,121.7-26.33,247.26-28.16,363.11-5.28,124.98,24.68,234.5,75.99,325.52,152.5,17.19,14.45,24.51,32.66,20.61,51.28-6.42,30.69-43.3,58.73-98.64,75.02-126.55,37.24-189.68,81.76-193.02,136.09-.89,14.6-2.88,29.36-4.8,43.63-3.35,24.92-6.82,50.69-4.78,77.25.03.39.05.77.05,1.16.07,39.48-14.8,70.69-39.8,83.49-16.47,8.43-34.9,7.25-49.3-3.16-19.97-14.44-28.26-43.02-22.74-78.42,8.77-56.32,17.83-114.55,6.64-126.58-1.86-2.01-5.66-2.86-11.29-2.6-201.48,63.36-301.74,138.99-298.06,224.83,25.68,100.46,9.12,169.41-49.22,204.95-10.62,6.63-22.66,9.9-34.69,9.9ZM1042.14,1247.72c-4.73,13.85-.25,29.24,11.19,38.4,11.5,9.2,27.65,10.13,40.16,2.33,46.35-28.23,57.77-84.54,35.05-172.24-.26-.99-.42-2-.47-3.02-2.99-52.76,23.78-101.59,79.56-145.15,53-41.38,134.39-79.44,241.92-113.12,1.09-.34,2.22-.56,3.36-.66,16.53-1.36,29.35,2.77,38.22,12.29,20.56,22.1,14.93,65.11,1.32,152.54-4.24,27.19,2.51,42.85,10.25,48.44,4.88,3.53,10.89,3.77,16.91.69,11.04-5.65,22.81-23.12,22.89-55.21-2.2-29.61,1.46-56.84,5.01-83.18,1.93-14.35,3.76-27.91,4.58-41.39,4.3-69.94,72.7-122.05,215.28-164.01,48.73-14.34,73.78-36.23,76.99-51.57.55-2.64,2.23-10.66-10.19-21.11-166.85-140.27-411.82-193.11-656.32-141.85-155.12,211.28-262.93,396.93-320.53,551.91,1.87,13.18,7.68,16.61,9.68,17.79,8.58,5.06,32.32,9.34,95.14-18.73,53.16-29.47,83.32-16.03,99.28.49,1.25,1.29,2.27,2.79,3,4.44,17.86,39.76,10.57,99.26-22.28,181.91Z"/>
  <g class="st9">
    <path class="st0" d="M867.79,994.25c62.37-144.3,162.66-310.29,300.83-498.02,4.65-1.14,9.3-2.19,13.99-3.14l7.2-1.41c-112.49,189.18-216.45,368.07-311.9,536.68-3.88-11.26-7.26-22.64-10.12-34.1"/>
  </g>
  <path class="st8" d="M1075.11,1324.81c-14.63,0-29.23-4.85-41.19-14.42-21.81-17.45-30.25-46.87-21.02-73.23.07-.2.15-.41.23-.61,28.49-71.6,36.57-123.88,24.02-155.47-6.16-5.59-21.53-14.47-60.47,7.27-.4.22-.8.42-1.21.61-59.62,26.75-99.11,32.28-124.27,17.42-10.3-6.08-23.04-18.87-25.22-45.24-.18-2.25.12-4.52.9-6.65,58.71-159.58,169.55-350.6,329.43-567.78,2.25-3.05,5.53-5.18,9.23-5.98,121.72-26.32,247.29-28.14,363.11-5.28,124.99,24.68,234.5,75.98,325.52,152.5,17.19,14.46,24.51,32.66,20.61,51.28-6.43,30.69-43.3,58.73-98.64,75.01-126.54,37.24-189.67,81.76-193,136.09-.9,14.59-2.88,29.34-4.81,43.6-3.36,24.93-6.83,50.71-4.79,77.29.03.39.05.77.05,1.16.07,39.48-14.8,70.69-39.8,83.49-16.47,8.43-34.9,7.25-49.3-3.16-19.97-14.44-28.27-43.02-22.76-78.41,8.77-56.32,17.85-114.55,6.65-126.58-1.86-2.01-5.66-2.86-11.29-2.6-201.48,63.36-301.74,138.99-298.06,224.83,25.68,100.47,9.12,169.42-49.24,204.95-10.61,6.62-22.66,9.9-34.68,9.9ZM1042.14,1247.72c-4.73,13.85-.25,29.24,11.19,38.4,11.5,9.2,27.64,10.13,40.15,2.33,46.36-28.22,57.78-84.53,35.06-172.24-.26-.99-.42-2-.47-3.02-2.99-52.76,23.78-101.59,79.56-145.15,53-41.38,134.4-79.44,241.92-113.12,1.09-.34,2.22-.56,3.36-.66,16.52-1.37,29.36,2.78,38.22,12.3,20.57,22.11,14.93,65.11,1.31,152.54-4.23,27.19,2.52,42.85,10.25,48.44,4.87,3.52,10.88,3.77,16.92.69,11.04-5.65,22.81-23.12,22.89-55.21-2.2-29.62,1.47-56.87,5.02-83.22,1.93-14.34,3.76-27.89,4.59-41.35,4.28-69.93,72.68-122.04,215.26-164.01,48.73-14.34,73.78-36.23,76.99-51.57.55-2.64,2.23-10.66-10.19-21.11-166.83-140.25-411.79-193.09-656.32-141.85-155.12,211.28-262.93,396.93-320.53,551.91,1.87,13.18,7.68,16.61,9.68,17.79,8.58,5.07,32.33,9.33,95.14-18.75,53.15-29.45,83.32-16.01,99.29.5,1.25,1.3,2.27,2.8,3,4.44,17.85,39.76,10.56,99.27-22.29,181.91Z"/>
  <g class="st10">
    <path class="st7" d="M1480.85,1063.61c-4.94-11.33-6.87-26.96-3.77-46.9l1.82-11.69c1.31,18.09,1.98,37.61,1.95,58.59M1329.99,862.04l-.03.02c17.6-8.49,36.25-16.95,55.96-25.41,23.62,2.68,42.83,14.86,57.64,36.49-205.29,65.89-305.28,145.61-299.97,239.18,24.44,94.34,10.5,157.44-41.87,189.32-18.12,11.31-41.41,9.96-58.09-3.38-3.02-2.42-5.7-5.13-8.02-8.08l.98-71.78c-2.75,7.74-5.76,15.71-9.02,23.91-5.79,16.54-2.52,34.55,8.03,47.87,73.37-3.49,98.01-72.43,73.9-206.85-1.57-42.23,20.87-83.98,67.31-125.25h0l.07-.06c4.61-4.08,9.44-8.17,14.51-12.23,33.57-30.18,34.45-47.22,2.62-51.13-5.12.02-10.15-.27-15.07-.87h-.02c-42.27-5.06-75.84-31.81-80.28-67.79-5.48-44.29,35.17-85.73,90.81-92.62,55.62-6.89,105.16,23.4,110.63,67.7,1.52,12.25-.5,24.27-5.39,35.42h0,0c-1.92,4.39-4.3,8.64-7.08,12.72-11.6,24.74,2.52,29.02,42.37,12.81ZM1353.18,672.16c7.7,0,13.93,6.23,13.93,13.93s-6.24,13.95-13.93,13.95-13.95-6.23-13.95-13.95c0-7.7,6.24-13.93,13.95-13.93ZM1027.12,823c5.58,0,9.95,4.37,9.95,9.94s-4.37,9.96-9.95,9.96-9.95-4.37-9.95-9.96c0-5.56,4.38-9.94,9.95-9.94ZM1482.14,809.09c5.57,0,9.95,4.37,9.95,9.96s-4.38,9.94-9.95,9.94-9.95-4.37-9.95-9.94,4.37-9.96,9.95-9.96ZM1221.84,519.04c5.57,0,9.95,4.39,9.95,9.96s-4.37,9.96-9.95,9.96-9.95-4.39-9.95-9.96c0-5.56,4.38-9.96,9.95-9.96ZM1535.4,537.63c5.58,0,9.96,4.39,9.96,9.96s-4.38,9.94-9.96,9.94-9.95-4.37-9.95-9.94,4.38-9.96,9.95-9.96ZM1071.47,973.99c7.71,0,13.94,6.23,13.94,13.95s-6.23,13.93-13.94,13.93-13.94-6.24-13.94-13.93,6.24-13.95,13.94-13.95ZM1314.45,603.59c14.43,11.66,14.47,35.55.08,53.35-14.39,17.8-37.75,22.77-52.18,11.11-14.43-11.66-14.46-35.55-.07-53.35,14.39-17.8,37.75-22.79,52.17-11.11ZM1730.49,614.94c-122.35-102.86-306.36-137.38-552.04-103.57,115.11-39.38,235.79-44.53,362.03-15.51l5.14-.94c108.97,24.45,211.69,71.91,298.55,144.94,39.37,33.11,3.18,77.24-72.42,99.48-139.76,41.13-200.5,90.76-204.13,150.05-2.41,39.25-12.96,79.12-9.58,123.03.15,76.19-58.97,92.91-77.17,51.21,32.28-2.08,47.11-22.37,44.51-60.88,3.74-86.31,17.21-151.06,40.39-194.25v.02s.03-.07.03-.07c3.08-5.73,6.33-11.06,9.75-16.03,14.14-26.1,8.61-35.24-16.56-27.45-44.68,17.96-92.58,5.42-109.43-29.8-17.75-37.06,5.62-85.17,52.18-107.47,46.57-22.3,98.71-10.35,116.45,26.73,7.76,16.21,7.66,34.52,1.2,51.87,12.92,21.85,35.6,25.73,68.04,11.68,48.58-35.44,62.92-69.79,43.06-103.03ZM841.47,1059.87c5.19-14.1,10.79-28.44,16.79-43.01,8.39-8.37,17.36-16.28,26.9-23.71-25.72,77.73,16.63,94.37,127.05,49.91,11.46.58,20.35,4.08,26.65,10.54l-.13,9.96c-17.27-8.78-40.46-5.04-69.61,11.22-81.26,36.45-123.81,31.48-127.64-14.91Z"/>
  </g>
  <path class="st5" d="M2032.4,622.61c17.53,12.36,17.21,42.98-.7,68.37-17.91,25.41-46.62,35.96-64.16,23.62-17.52-12.36-17.2-42.97.71-68.37,17.91-25.41,46.63-35.98,64.15-23.62Z"/>
  <path class="st8" d="M1984.73,735.35c-9.4,0-18.38-2.6-26.13-8.05-24.93-17.58-26.26-57.13-3.05-90.03,10.46-14.84,24.51-26.06,39.55-31.6,16.81-6.19,33.67-4.64,46.26,4.24,12.6,8.88,19.71,24.25,19.53,42.16-.17,16.04-6.02,33.04-16.48,47.87-15.98,22.66-38.84,35.42-59.68,35.42ZM2015.31,632.97c-3.62,0-7.13,1-9.47,1.87-9.05,3.33-18.12,10.75-24.89,20.34-13.84,19.62-13.45,40.36-4.45,46.71,9,6.33,28.68-.26,42.5-19.87,6.76-9.59,10.7-20.63,10.8-30.27.04-4.43-.72-12.46-6.36-16.43h0c-2.46-1.73-5.33-2.34-8.14-2.34Z"/>
  <path class="st8" d="M1901.4,721.68c-2.8,0-5.64-.76-8.2-2.35-17.07-10.63-34.39-30.74-52.94-61.47-4.43-7.35-2.07-16.9,5.28-21.34,7.35-4.43,16.9-2.07,21.34,5.27,19.6,32.48,34.07,45.74,42.76,51.15,7.29,4.54,9.52,14.12,4.98,21.41-2.95,4.73-8.02,7.33-13.21,7.33Z"/>
  <path class="st3" d="M1592.17,628.39c17.75,37.07-5.62,85.17-52.19,107.47-46.57,22.3-98.71,10.34-116.46-26.73-17.75-37.05,5.62-85.17,52.19-107.47,46.57-22.3,98.71-10.34,116.46,26.73Z"/>
  <path class="st8" d="M1492.03,762.64c-8.35,0-16.59-.9-24.57-2.73-26.71-6.13-47.29-21.78-57.96-44.06-10.67-22.27-9.96-48.12,2.01-72.77,11.39-23.45,31.8-43.14,57.48-55.43,25.68-12.3,53.82-15.86,79.22-10.03,26.71,6.13,47.29,21.78,57.96,44.06h0c21.41,44.73-5.27,102.24-59.5,128.21-17.62,8.44-36.4,12.76-54.66,12.76ZM1523.61,605.96c-13.62,0-27.77,3.3-41.19,9.72-19.37,9.27-34.62,23.83-42.95,40.98-7.75,15.95-8.43,32.2-1.94,45.76,6.5,13.57,19.59,23.23,36.88,27.19,18.58,4.26,39.48,1.51,58.85-7.77,38.76-18.56,58.9-57.48,44.88-86.74-6.49-13.57-19.59-23.22-36.88-27.19-5.7-1.31-11.63-1.96-17.66-1.96Z"/>
  <path class="st3" d="M1278.49,775.24c5.04,40.79-32.4,78.97-83.64,85.32-51.25,6.34-96.88-21.58-101.92-62.35-5.04-40.79,32.4-78.97,83.65-85.32,51.24-6.34,96.87,21.58,101.92,62.35Z"/>
  <path class="st8" d="M1180.3,877c-22.45,0-43.96-5.74-61.86-16.69-23.37-14.3-37.92-35.67-40.95-60.19-6.08-49.22,37.51-95.27,97.17-102.65,28.26-3.49,56.07,2.07,78.3,15.67,23.37,14.3,37.92,35.68,40.95,60.19h0c6.08,49.22-37.5,95.27-97.16,102.65-5.52.68-11.01,1.02-16.45,1.02ZM1191.16,727.53c-4.18,0-8.42.26-12.68.79-42.66,5.28-74.12,35.78-70.14,67.99,1.85,14.92,11.19,28.23,26.32,37.49,16.26,9.95,36.95,13.98,58.27,11.34,42.65-5.28,74.11-35.78,70.13-67.98h0c-1.85-14.92-11.19-28.23-26.32-37.49-13.01-7.96-28.85-12.13-45.58-12.13Z"/>
  <path class="st8" d="M1481,894.15c-4.09,0-8.17-1.6-11.22-4.79-7.84-8.18-27.95-18.36-79.2-20.4-8.58-.34-15.26-7.57-14.91-16.15.34-8.58,7.48-15.37,16.15-14.91,50.16,1.99,83.01,11.79,100.41,29.95,5.94,6.2,5.73,16.04-.47,21.98-3.01,2.89-6.88,4.32-10.75,4.32Z"/>
  <path class="st8" d="M1574.66,875.25c-1.08,0-2.18-.11-3.29-.35-8.39-1.8-13.73-10.07-11.92-18.46,7.82-36.38,31.34-76.01,71.9-121.15,5.74-6.39,15.56-6.91,21.95-1.17,6.39,5.74,6.91,15.56,1.17,21.95-36.33,40.43-58.07,76.41-64.63,106.91-1.57,7.29-8.01,12.28-15.18,12.28Z"/>
  <path class="st3" d="M1298.65,583.41c14.43,11.67,14.46,35.56.06,53.35-14.39,17.8-37.74,22.79-52.17,11.13-14.43-11.65-14.46-35.55-.06-53.35,14.39-17.8,37.74-22.79,52.17-11.13Z"/>
  <path class="st8" d="M1264.97,669.65c-10.22,0-20.11-3.14-28.2-9.67-10.54-8.51-16.6-21.8-16.62-36.44-.02-13.63,5.04-27.4,14.23-38.77,19.75-24.43,52.96-30.47,74.03-13.45,0,0,0,0,0,0,10.54,8.52,16.59,21.81,16.61,36.45.02,13.63-5.04,27.4-14.24,38.76-12.16,15.05-29.44,23.12-45.83,23.12ZM1280.07,592.62c-7.13,0-15.5,4.24-21.51,11.69-4.66,5.77-7.33,12.76-7.33,19.19,0,3.07.67,8.74,5.06,12.3,7.61,6.15,21.5,2.11,30.32-8.81,4.66-5.76,7.33-12.75,7.32-19.18,0-3.07-.67-8.75-5.07-12.32-2.42-1.95-5.48-2.88-8.8-2.88Z"/>
  <path class="st2" d="M1044.67,897.15c12.48,10.1,12.51,30.76.06,46.15-12.45,15.4-32.66,19.72-45.14,9.61-12.48-10.08-12.51-30.74-.05-46.14,12.44-15.41,32.65-19.72,45.13-9.63Z"/>
  <path class="st8" d="M1015.55,967.28c-8.03,0-15.48-2.54-21.54-7.45-8.15-6.59-12.65-16.52-12.67-27.97-.01-10.74,4-21.63,11.3-30.66,7.29-9.03,17.09-15.24,27.6-17.48,11.2-2.39,21.85-.07,30.02,6.53,0,0,0,0,0,0,16.25,13.16,16.88,39.46,1.38,58.64-7.3,9.03-17.11,15.23-27.62,17.47-2.87.61-5.71.91-8.48.91ZM1028.63,900.58c-1.51,0-3.08.17-4.69.51-6.54,1.39-12.75,5.4-17.49,11.27-4.75,5.88-7.36,12.79-7.35,19.47,0,5.98,2.17,11.02,6.08,14.18,3.92,3.17,9.29,4.23,15.15,2.98,6.54-1.39,12.76-5.4,17.51-11.27,9.34-11.56,9.9-26.66,1.26-33.67-2.84-2.29-6.45-3.48-10.45-3.48Z"/>
  <path class="st2" d="M1706.82,657.34c2.51,3.69-1.27,10.63-8.44,15.51-7.17,4.88-15.01,5.86-17.51,2.17-2.51-3.69,1.27-10.63,8.43-15.51,7.18-4.88,15.02-5.85,17.52-2.17Z"/>
  <path class="st8" d="M1686.22,686.13c-5.47,0-10.01-2.16-12.7-6.12-5.52-8.11-.99-19.82,10.78-27.84,4.62-3.14,9.74-5.19,14.42-5.77,6.64-.84,12.3,1.33,15.44,5.94h0c3.14,4.6,3.09,10.64-.13,16.55-2.26,4.15-6.04,8.16-10.66,11.3-4.62,3.14-9.73,5.19-14.41,5.77-.94.12-1.86.18-2.75.18ZM1699.48,662.34h.04-.04Z"/>
  <path class="st2" d="M1412.83,555.13c2.5,3.67-1.27,10.63-8.44,15.51-7.17,4.88-15.01,5.86-17.51,2.17-2.51-3.69,1.27-10.63,8.43-15.51,7.17-4.88,15.01-5.86,17.52-2.17Z"/>
  <path class="st8" d="M1392.24,583.92c-5.47,0-10.01-2.16-12.7-6.13-3.13-4.59-3.08-10.62.13-16.54,2.25-4.14,6.04-8.16,10.65-11.3,11.79-8.01,24.34-7.93,29.86.17,2.04,2.99,2.76,6.78,2.03,10.65-1.16,6.09-5.94,12.51-12.81,17.19-4.62,3.14-9.74,5.19-14.41,5.77-.94.12-1.85.17-2.74.17Z"/>
  <path class="st2" d="M1375.31,783.72c2.51,3.69-1.27,10.63-8.44,15.51s-15.01,5.86-17.52,2.17c-2.5-3.67,1.27-10.61,8.45-15.51,7.17-4.88,15-5.84,17.51-2.17Z"/>
  <path class="st8" d="M1354.72,812.53c-5.35,0-9.92-2.05-12.71-6.14-3.13-4.59-3.08-10.62.13-16.54,2.26-4.14,6.04-8.16,10.65-11.3,11.75-8.01,24.3-7.94,29.85.15,0,0,0,0,.01.02,3.14,4.6,3.09,10.64-.13,16.55-2.25,4.14-6.04,8.15-10.65,11.29-5.84,3.98-11.88,5.96-17.15,5.96ZM1370.17,790.38h.04-.04Z"/>
  <path class="st2" d="M1171.64,659.24c2.5,3.69-1.27,10.63-8.44,15.51-7.17,4.88-15.01,5.86-17.52,2.17-2.51-3.69,1.27-10.63,8.44-15.51,7.18-4.88,15.01-5.86,17.52-2.17Z"/>
  <path class="st8" d="M1151.04,688.04c-5.35,0-9.92-2.05-12.71-6.13-3.14-4.61-3.09-10.64.13-16.55,2.26-4.15,6.04-8.16,10.66-11.3,11.78-8.01,24.33-7.93,29.86.18,0,0,0,0,0,0,5.52,8.12.98,19.82-10.78,27.83-5.85,3.98-11.88,5.96-17.16,5.96ZM1166.49,665.89h.04-.04Z"/>
  <path class="st3" d="M1171.52,1077.83c64.27-24.49,125.86-49.21,184.73-74.18-10.84,37.32-38.25,67.59-74.31,82.06-36.06,14.48-76.78,11.58-110.42-7.88Z"/>
  <path class="st8" d="M1234.68,1110.46c-24.55,0-48.95-6.44-70.95-19.17-5.19-3-8.19-8.72-7.71-14.7.48-5.98,4.36-11.14,9.96-13.28,64.04-24.4,126.02-49.29,184.2-73.97,5.54-2.34,11.91-1.29,16.39,2.69,4.49,3.98,6.28,10.2,4.61,15.96-12.26,42.2-42.68,75.78-83.45,92.15-17.19,6.9-35.15,10.32-53.04,10.32ZM1215.33,1077.62c20.16,3.62,41.14,1.56,60.81-6.33,19.65-7.89,36.22-20.89,48.28-37.45-35.3,14.63-71.78,29.26-109.09,43.78Z"/>
  <g class="st10">
    <path class="st7" d="M1264.31,774.5c-15.14,16.97-38.48,29.35-65.73,32.73-35.84,4.43-68.93-7.88-87.31-29.64-.52-.61-1.02-1.23-1.51-1.86-3.8-4.82-6.89-10.07-9.16-15.69-2.93,5.35-5.12,10.97-6.49,16.75-1.64,6.94-2.09,14.13-1.19,21.4.79,6.42,2.58,12.51,5.24,18.18,1.84,3.94,4.09,7.68,6.7,11.19,17.72,23.84,52.34,37.64,89.98,33,30.31-3.76,55.79-18.65,70.51-38.62,10.17-13.81,15.2-30.03,13.13-46.68-.65-5.3-1.99-10.37-3.93-15.18-2.79,5.08-6.22,9.9-10.24,14.42"/>
  </g>
  <g class="st10">
    <path class="st7" d="M1542.25,686.4c-33.56,16.07-70,14.35-94.4-1.74-9.45-6.23-17.1-14.62-22.05-24.99-.86-1.79-1.63-3.6-2.29-5.42-7.63,18.22-8.21,37.73,0,54.88,5.6,11.73,14.66,20.93,25.89,27.34.36.22.73.41,1.1.61,17.23,9.45,39.37,12.43,62.01,7.95,9.16-1.82,18.41-4.86,27.44-9.18,44.32-21.23,67.63-65.82,54.47-102.03-8.85,21.16-27.17,40.59-52.19,52.57"/>
  </g>
  <g class="st10">
    <path class="st7" d="M1296.23,603.92c-10.24,12.67-25.03,18.85-37.91,17.13-5.21-.69-10.1-2.66-14.26-6.02-2.25-1.83-4.15-3.92-5.68-6.27-5.39,14.76-2.66,30.38,8.16,39.12,1.65,1.32,3.39,2.44,5.24,3.33,14.38,7.03,34.19,1.34,46.94-14.44,9.23-11.44,12.53-25.37,9.88-36.98-.84-3.65-2.26-7.08-4.26-10.12-.93,2.55-2.1,5.08-3.52,7.54-1.31,2.31-2.85,4.55-4.59,6.7"/>
  </g>
  <g class="st10">
    <path class="st7" d="M1005.13,1601.34c-54.67,5.04-103.16-9.63-124.62-34.73-8.41,10.88-12.64,22.77-11.53,34.86,3.71,40.07,64.66,67.19,136.15,60.61,71.48-6.58,126.46-44.4,122.77-84.47-.87-9.43-4.92-18.16-11.52-25.88-19.47,25.19-61.33,45.02-111.25,49.61"/>
  </g>
  <g class="st10">
    <path class="st7" d="M1289.35,1395.61c-2.54.6-5.07,1.08-7.56,1.48-12.91,2.04-25.08,1.59-35.09-.99-6.62-1.7-12.28-4.32-16.55-7.75-2.02,2.46-3.68,4.99-4.91,7.55-2.37,4.93-3.16,10-2.02,14.86,4.29,18.47,34.45,27.22,67.37,19.55,22.77-5.29,40.89-17.06,48.49-29.91,3.39-5.73,4.68-11.66,3.36-17.35-1.11-4.79-3.98-8.93-8.17-12.29-8.93,10.81-25.18,20.26-44.92,24.85"/>
  </g>
  <g class="st10">
    <path class="st7" d="M1711.14,1286.82c-48.2,4.44-90.61-9.67-106.23-33-5.18,7.93-7.66,16.43-6.88,25.05,3.05,33.13,53.42,55.54,112.49,50.1,59.08-5.44,104.5-36.69,101.44-69.79-.56-6.09-2.73-11.82-6.25-17.08-14.67,22.57-50.89,40.7-94.57,44.73"/>
  </g>
  <g class="st10">
    <path class="st7" d="M1471.95,1194.31c-34.15,4.43-65.03-3.13-80.37-17.78-6.19,7.84-9.21,16.37-8.11,24.92,3.41,26.08,43.84,42.29,90.34,36.25,46.48-6.05,81.43-32.08,78.06-58.14-.9-6.92-4.42-13.16-9.97-18.45-12.7,16.05-38.72,29.13-69.96,33.2"/>
  </g>
  <g class="st10">
    <path class="st7" d="M1712.31,1123.77c-22.93,7.66-45.26,6.85-58.3-.83-4.98,7.57-6.77,15.4-4.42,22.43,6.02,17.96,36.87,23.82,68.92,13.1,32.04-10.74,53.15-33.98,47.15-51.94-1.71-5.11-5.44-9.25-10.63-12.31-7.74,11.82-23.2,23-42.72,29.55"/>
  </g>
  <g class="st10">
    <path class="st7" d="M832.05,1278.72c-44.81,4.12-84.61-7.79-102.55-28.23-6.74,8.87-10.11,18.56-9.21,28.37,3.05,33.13,53.42,55.54,112.49,50.1,59.07-5.44,104.49-36.69,101.44-69.79-.73-7.99-4.23-15.36-9.93-21.85-15.95,21-50.72,37.57-92.24,41.4"/>
  </g>
  <g class="st10">
    <path class="st7" d="M617.59,1140.44c-6.05,20.74-31.26,42.45-65.43,53.89-30.97,10.35-61.12,9.56-79.4-.29-1.82,6.25-1.92,12.42.02,18.18,8.35,24.94,51.15,33.05,95.62,18.18,18.73-6.27,34.76-15.63,46.43-26.22,16.03-14.55,23.81-31.43,18.98-45.85-2.54-7.56-8.25-13.59-16.22-17.89"/>
  </g>
  <g class="st10">
    <path class="st7" d="M1176.43,1466.94c16.43,0,29.76,13.32,29.76,29.75s-13.33,29.76-29.76,29.76-29.76-13.32-29.76-29.76c0-16.43,13.33-29.75,29.76-29.75"/>
  </g>
  <g class="st10">
    <path class="st7" d="M710.36,1028.14c16.43,0,29.75,13.32,29.75,29.76s-13.33,29.75-29.75,29.75-29.75-13.32-29.75-29.75c0-16.45,13.32-29.76,29.75-29.76"/>
  </g>
  <g class="st10">
    <path class="st7" d="M1684.68,983.5c16.43,0,29.75,13.34,29.75,29.76s-13.33,29.76-29.75,29.76-29.76-13.32-29.76-29.76,13.33-29.76,29.76-29.76"/>
  </g>
  <g class="st10">
    <path class="st7" d="M782.24,1588.4c8.22,0,14.9,6.67,14.9,14.89s-6.68,14.91-14.9,14.91-14.9-6.67-14.9-14.91,6.67-14.89,14.9-14.89"/>
  </g>
  <g class="st10">
    <path class="st7" d="M1517.96,1292.17c8.22,0,14.89,6.67,14.89,14.91s-6.67,14.89-14.89,14.89-14.9-6.67-14.9-14.89c0-8.24,6.67-14.91,14.9-14.91"/>
  </g>
  <g class="st10">
    <path class="st7" d="M1210.54,1289.69c8.23,0,14.9,6.67,14.9,14.89s-6.67,14.91-14.9,14.91-14.89-6.67-14.89-14.91,6.67-14.89,14.89-14.89"/>
  </g>
  <g class="st10">
    <path class="st7" d="M684.95,1175.66c8.23,0,14.9,6.67,14.9,14.89s-6.67,14.89-14.9,14.89-14.89-6.67-14.89-14.89c0-8.22,6.67-14.89,14.89-14.89"/>
  </g>
  <g class="st10">
    <path class="st7" d="M1570.04,1488.03c8.22,0,14.9,6.67,14.9,14.89s-6.68,14.91-14.9,14.91-14.9-6.67-14.9-14.91c0-8.22,6.67-14.89,14.9-14.89"/>
  </g>
  <g class="st10">
    <path class="st7" d="M1049.41,1421.09c8.23,0,14.9,6.67,14.9,14.89s-6.67,14.91-14.9,14.91-14.89-6.67-14.89-14.91c0-8.22,6.67-14.89,14.89-14.89"/>
  </g>
  <g class="st10">
    <path class="st7" d="M1222.92,1620.67c6.17,0,11.18,4.99,11.18,11.17s-5.01,11.17-11.18,11.17-11.17-5.01-11.17-11.17,5-11.17,11.17-11.17"/>
  </g>
  <g class="st10">
    <path class="st7" d="M1430.57,1079.59c6.17,0,11.17,5.01,11.17,11.17s-5,11.19-11.17,11.19-11.17-5.01-11.17-11.19c0-6.16,5.01-11.17,11.17-11.17"/>
  </g>
  <g class="st10">
    <path class="st7" d="M830.6,945.71c6.17,0,11.18,5.01,11.18,11.17s-5.01,11.19-11.18,11.19-11.17-5.01-11.17-11.19,5-11.17,11.17-11.17"/>
  </g>
  <g class="st9">
    <path class="st0" d="M1001.19,1547.37c25.86-2.22,47.32,1.73,47.93,8.85.61,7.1-19.84,14.68-45.71,16.92-25.86,2.22-47.32-1.74-47.93-8.84-.61-7.12,19.85-14.69,45.72-16.93"/>
  </g>
  <g class="st9">
    <path class="st0" d="M826.82,1232.17c20.47-1.77,37.44,1.35,37.92,6.99.49,5.62-15.7,11.62-36.16,13.39-20.47,1.75-37.45-1.37-37.92-6.99-.49-5.64,15.7-11.62,36.16-13.39"/>
  </g>
  <g class="st9">
    <path class="st0" d="M544.55,1162.84c12.07-4.44,22.84-5.35,24.06-2.04,1.22,3.33-7.56,9.63-19.63,14.06-12.06,4.46-22.83,5.37-24.06,2.04-1.22-3.31,7.57-9.62,19.64-14.06"/>
  </g>
  <g class="st9">
    <path class="st0" d="M1703.7,1233.2c25.87-2.22,47.33,1.73,47.94,8.85.61,7.1-19.86,14.69-45.72,16.91-25.86,2.24-47.32-1.72-47.93-8.84s19.85-14.69,45.71-16.93"/>
  </g>
  <g class="st9">
    <path class="st0" d="M1468.33,1165.21c12.7-1.97,23.44-.74,23.99,2.76.54,3.49-9.32,7.93-22.02,9.9-12.7,1.97-23.45.74-24-2.75-.54-3.51,9.32-7.94,22.03-9.92"/>
  </g>
  <g class="st9">
    <path class="st0" d="M1499.76,630.23c24.73-7.88,46.54-8.75,48.71-1.95,2.16,6.81-16.13,18.7-40.86,26.58-24.74,7.9-46.54,8.76-48.71,1.95-2.17-6.8,16.12-18.71,40.86-26.58"/>
  </g>
  <g class="st9">
    <path class="st0" d="M1190.55,745.26c25.89,1.9,46.45,9.2,45.93,16.34-.52,7.12-21.93,11.35-47.82,9.45-25.89-1.9-46.45-9.2-45.93-16.32.52-7.14,21.93-11.37,47.82-9.47"/>
  </g>
</svg>